# xmcd
#
# Track frame offsets: 
#        150
#        15072
#        28525
#        42930
#        57162
#        74205
#        87427
#        96620
#        112760
#        126117
#
# Disc length: 1955 seconds
#
# Revision: 3
# Processed by: cddbd v1.4PL0 Copyright (c) Steve Scherf et al.
# Submitted via: ExactAudioCopy v0.90b3
#
DISCID=7f07a10a
DTITLE=Waylon Jennings - Full Circle
DYEAR=1900
DGENRE=Country
TTITLE0=Trouble Man
TTITLE1=Grapes On The Vine
TTITLE2=Which Way Do I Go (Now That I'm Gone)
TTITLE3=Yoyos, Bozos, Bimbos And Heroes
TTITLE4=It Goes With The Territory
TTITLE5=How Much Is It Worth To Live In L.A.
TTITLE6=Hey Willie
TTITLE7=You Put The Soul In The Song
TTITLE8=G.I. Joe
TTITLE9=Woman I Hate It
EXTD=
EXTT0=
EXTT1=
EXTT2=
EXTT3=
EXTT4=
EXTT5=
EXTT6=
EXTT7=
EXTT8=
EXTT9=
PLAYORDER=
